<svg width="40" height="20" viewBox="0 0 40 20" fill="none" xmlns="http://www.w3.org/2000/svg">
<circle cx="31.8987" cy="5.13016" r="1.32938" fill="#AAF448"/>
<path d="M30.5693 16.0066V7.37891H33.2267V16.0066H30.5693Z" fill="#AAF448"/>
<path d="M34.0642 7.3738H40V9.58248H34.0642V7.3738ZM38.3608 16.0015H35.7035V4.69922H38.3608V16.0015Z" fill="#AAF448"/>
<path d="M23.6971 16.0105H21.0398V3H23.6971V10.4888L26.4925 7.38285H29.8228L26.5788 10.7994L29.7192 16.0105H26.6478L24.7152 12.7838L23.6971 13.8536V16.0105Z" fill="#AAF448"/>
<path d="M2.79536 3.24023V16.0092H0V3.24023H2.79536ZM5.15934 10.8153H1.89809V8.4686H5.0213C5.52746 8.4686 5.91283 8.34781 6.17741 8.10624C6.44199 7.86466 6.57428 7.5138 6.57428 7.05366C6.57428 6.60502 6.44199 6.26567 6.17741 6.0356C5.91283 5.80553 5.52746 5.69049 5.0213 5.69049H2.08789V3.24023H5.31464C6.60304 3.24023 7.6096 3.55658 8.33432 4.18928C9.07055 4.82197 9.43867 5.68474 9.43867 6.77758C9.43867 7.52531 9.25461 8.158 8.8865 8.67566C8.51838 9.19332 7.98347 9.56144 7.28175 9.78V9.53843C8.02948 9.69948 8.59891 10.0331 8.99003 10.5392C9.39265 11.0454 9.59396 11.6953 9.59396 12.4891C9.59396 13.2368 9.42716 13.8753 9.09356 14.4044C8.77146 14.9336 8.28831 15.3362 7.64411 15.6123C7.01142 15.8769 6.23493 16.0092 5.31464 16.0092H2.08789V13.5589H5.15934C5.677 13.5589 6.06812 13.4439 6.33271 13.2138C6.59729 12.9722 6.72958 12.6156 6.72958 12.144C6.72958 11.7068 6.59154 11.379 6.31545 11.1604C6.05087 10.9304 5.6655 10.8153 5.15934 10.8153Z" fill="#AAF448"/>
<path fill-rule="evenodd" clip-rule="evenodd" d="M15.1893 16.0062C17.7005 16.0062 19.7363 13.9703 19.7363 11.4595C19.7363 8.94798 17.7005 6.91211 15.1893 6.91211C12.678 6.91211 10.6421 8.94798 10.6421 11.4595C10.6421 13.9703 12.678 16.0062 15.1893 16.0062ZM15.1893 13.7149C16.3827 13.7149 17.3502 12.7475 17.3502 11.5546C17.3502 10.3617 16.3827 9.39428 15.1893 9.39428C13.9958 9.39428 13.0282 10.3617 13.0282 11.5546C13.0282 12.7475 13.9958 13.7149 15.1893 13.7149Z" fill="#AAF448"/>
<path fill-rule="evenodd" clip-rule="evenodd" d="M10.7527 3C11.2084 5.02984 13.0218 6.54664 15.1895 6.54664C17.3571 6.54664 19.1705 5.02984 19.6262 3H17.1522C16.8097 3.74102 16.0596 4.25531 15.1895 4.25531C14.3193 4.25531 13.5692 3.74102 13.2267 3H10.7527Z" fill="#AAF448"/>
</svg>
