<svg width="40" height="40" viewBox="0 0 40 40" fill="none" xmlns="http://www.w3.org/2000/svg">
<circle cx="31.8987" cy="15.1302" r="1.32938" fill="#AAF448"/>
<path d="M30.5693 26.0066V17.3789H33.2267V26.0066H30.5693Z" fill="#AAF448"/>
<path d="M34.0642 17.3738H40V19.5825H34.0642V17.3738ZM38.3608 26.0015H35.7035V14.6992H38.3608V26.0015Z" fill="#AAF448"/>
<path d="M23.6971 26.0105H21.0398V13H23.6971V20.4888L26.4925 17.3829H29.8228L26.5788 20.7994L29.7192 26.0105H26.6478L24.7152 22.7838L23.6971 23.8536V26.0105Z" fill="#AAF448"/>
<path d="M2.79536 13.2402V26.0092H0V13.2402H2.79536ZM5.15934 20.8153H1.89809V18.4686H5.0213C5.52746 18.4686 5.91283 18.3478 6.17741 18.1062C6.44199 17.8647 6.57428 17.5138 6.57428 17.0537C6.57428 16.605 6.44199 16.2657 6.17741 16.0356C5.91283 15.8055 5.52746 15.6905 5.0213 15.6905H2.08789V13.2402H5.31464C6.60304 13.2402 7.6096 13.5566 8.33432 14.1893C9.07055 14.822 9.43867 15.6847 9.43867 16.7776C9.43867 17.5253 9.25461 18.158 8.8865 18.6757C8.51838 19.1933 7.98347 19.5614 7.28175 19.78V19.5384C8.02948 19.6995 8.59891 20.0331 8.99003 20.5392C9.39265 21.0454 9.59396 21.6953 9.59396 22.4891C9.59396 23.2368 9.42716 23.8753 9.09356 24.4044C8.77146 24.9336 8.28831 25.3362 7.64411 25.6123C7.01142 25.8769 6.23493 26.0092 5.31464 26.0092H2.08789V23.5589H5.15934C5.677 23.5589 6.06812 23.4439 6.33271 23.2138C6.59729 22.9722 6.72958 22.6156 6.72958 22.144C6.72958 21.7068 6.59154 21.379 6.31545 21.1604C6.05087 20.9304 5.6655 20.8153 5.15934 20.8153Z" fill="#AAF448"/>
<path fill-rule="evenodd" clip-rule="evenodd" d="M15.1893 26.0062C17.7005 26.0062 19.7363 23.9703 19.7363 21.4595C19.7363 18.948 17.7005 16.9121 15.1893 16.9121C12.678 16.9121 10.6421 18.948 10.6421 21.4595C10.6421 23.9703 12.678 26.0062 15.1893 26.0062ZM15.1893 23.7149C16.3827 23.7149 17.3502 22.7475 17.3502 21.5546C17.3502 20.3617 16.3827 19.3943 15.1893 19.3943C13.9958 19.3943 13.0282 20.3617 13.0282 21.5546C13.0282 22.7475 13.9958 23.7149 15.1893 23.7149Z" fill="#AAF448"/>
<path fill-rule="evenodd" clip-rule="evenodd" d="M10.7527 13C11.2084 15.0298 13.0218 16.5466 15.1895 16.5466C17.3571 16.5466 19.1705 15.0298 19.6262 13H17.1522C16.8097 13.741 16.0596 14.2553 15.1895 14.2553C14.3193 14.2553 13.5692 13.741 13.2267 13H10.7527Z" fill="#AAF448"/>
</svg>
