<svg width="46" height="21" viewBox="0 0 46 21" fill="none" xmlns="http://www.w3.org/2000/svg">
<g clip-path="url(#clip0_2298_6981)">
<circle cx="36.6836" cy="5.45066" r="1.52878" fill="#AAF448"/>
<path d="M35.1548 17.9589V8.03711H38.2107V17.9589H35.1548Z" fill="#AAF448"/>
<path d="M39.1738 8.03084H46V10.5708H39.1738V8.03084ZM44.1149 17.9527H41.059V4.95508H44.1149V17.9527Z" fill="#AAF448"/>
<path d="M27.2517 17.9621H24.1958V3H27.2517V11.6121L30.4664 8.04028H34.2962L30.5656 11.9693L34.1771 17.9621H30.645L28.4225 14.2513L27.2517 15.4816V17.9621Z" fill="#AAF448"/>
<path d="M3.21467 3.27539V17.9597H0V3.27539H3.21467ZM5.93325 11.9867H2.1828V9.28801H5.7745C6.35658 9.28801 6.79975 9.1491 7.10402 8.87129C7.40829 8.59348 7.56042 8.19 7.56042 7.66083C7.56042 7.1449 7.40829 6.75464 7.10402 6.49006C6.79975 6.22548 6.35658 6.09319 5.7745 6.09319H2.40108V3.27539H6.11184C7.5935 3.27539 8.75104 3.63919 9.58447 4.36679C10.4311 5.09439 10.8545 6.08657 10.8545 7.34333C10.8545 8.20322 10.6428 8.93082 10.2195 9.52613C9.79614 10.1214 9.18099 10.5448 8.37401 10.7961V10.5183C9.2339 10.7035 9.88874 11.0872 10.3385 11.6692C10.8015 12.2513 11.0331 12.9988 11.0331 13.9116C11.0331 14.7715 10.8412 15.5057 10.4576 16.1142C10.0872 16.7228 9.53156 17.1858 8.79073 17.5033C8.06313 17.8075 7.17017 17.9597 6.11184 17.9597H2.40108V15.1419H5.93325C6.52855 15.1419 6.97834 15.0096 7.28261 14.745C7.58688 14.4672 7.73902 14.0571 7.73902 13.5147C7.73902 13.012 7.58027 12.635 7.26277 12.3836C6.9585 12.119 6.51533 11.9867 5.93325 11.9867Z" fill="#AAF448"/>
<path fill-rule="evenodd" clip-rule="evenodd" d="M17.4678 17.9563C20.3557 17.9563 22.6969 15.615 22.6969 12.7275C22.6969 9.8393 20.3557 7.49805 17.4678 7.49805C14.5798 7.49805 12.2385 9.8393 12.2385 12.7275C12.2385 15.615 14.5798 17.9563 17.4678 17.9563ZM17.4678 15.3212C18.8402 15.3212 19.9528 14.2088 19.9528 12.8369C19.9528 11.465 18.8402 10.3525 17.4678 10.3525C16.0953 10.3525 14.9826 11.465 14.9826 12.8369C14.9826 14.2088 16.0953 15.3212 17.4678 15.3212Z" fill="#AAF448"/>
<path fill-rule="evenodd" clip-rule="evenodd" d="M12.3655 3C12.8896 5.33431 14.975 7.07863 17.4678 7.07863C19.9605 7.07863 22.0459 5.33431 22.57 3H19.7249C19.331 3.85218 18.4685 4.44361 17.4678 4.44361C16.4671 4.44361 15.6045 3.85218 15.2106 3H12.3655Z" fill="#AAF448"/>
</g>
<defs>
<clipPath id="clip0_2298_6981">
<rect width="46" height="21" fill="white"/>
</clipPath>
</defs>
</svg>
