<svg width="1294" height="512" viewBox="0 0 1294 512" fill="none" xmlns="http://www.w3.org/2000/svg">
<g clip-path="url(#clip0_4825_1689)">
<path fill-rule="evenodd" clip-rule="evenodd" d="M0 37H76.2657V134.49C91.4318 127.999 108.133 124.405 125.674 124.405H129.498C198.906 124.405 255.172 180.672 255.172 250.08V375.754H178.746V299.488H178.906V250.08C178.906 222.792 156.786 200.671 129.498 200.671H125.674C98.3866 200.671 76.2657 222.792 76.2657 250.08L76.2657 292.609L76.2657 299.488V373.637L76.2657 375.754H0V373.637V250.08V37ZM631.341 252.256C631.341 269.143 637.496 283.584 649.806 295.579C662.274 307.731 676.636 313.807 692.892 313.807C709.305 313.807 723.746 307.731 736.214 295.579C748.524 283.584 754.68 269.143 754.68 252.256C754.68 241.524 751.839 231.424 746.157 221.954C740.476 212.485 732.9 205.067 723.431 199.701C713.803 194.335 703.624 191.652 692.892 191.652C682.16 191.652 672.138 194.335 662.827 199.701C653.357 205.067 645.703 212.485 639.863 221.954C634.182 231.424 631.341 241.524 631.341 252.256ZM753.496 133.652C798.791 153.064 821.439 193.072 821.439 253.677L821.202 381.987V399.506C821.202 430.597 810.154 457.19 788.059 479.285C777.801 489.544 764.07 497.672 746.867 503.669C730.769 509.351 714.829 512.191 699.047 512.191H685.79C649.806 511.402 621.161 500.434 599.855 479.285C585.493 464.608 576.813 451.745 573.814 440.697L646.018 398.795C646.808 411.263 651.779 421.838 660.933 430.518C670.086 439.198 680.976 443.538 693.602 443.538C703.545 443.538 712.62 440.697 720.827 435.016C728.875 429.492 734.636 422.39 738.108 413.71L738.345 412.763L738.818 411.579L739.765 408.265C740.397 406.371 740.791 404.477 740.949 402.583V401.873L741.186 401.163L741.422 400.216V398.795H741.659V373.938L739.765 374.885L737.871 375.595C722.089 382.066 705.518 385.301 688.157 385.301C665.115 385.301 643.572 379.541 623.529 368.02C603.485 356.814 587.387 341.111 575.235 320.909C563.082 300.708 557.006 278.218 557.006 253.44C557.006 234.659 560.557 217.298 567.659 201.358C574.446 185.576 584.073 171.53 596.541 159.219C608.693 147.54 622.74 138.466 638.68 131.995C654.778 125.524 671.27 122.289 688.157 122.289C717.512 122.289 739.292 126.076 753.496 133.652ZM1066.7 307.338H960.402L1063.38 133.338H868.075L852.924 196.783H940.516L833.512 375.755H1048.47L1066.7 307.338ZM1294.43 307.338H1188.14L1291.12 133.338H1095.81L1080.66 196.783H1168.25L1061.25 375.755H1276.21L1294.43 307.338ZM537.012 252.065C537.012 253.667 536.982 255.262 536.924 256.85H537.049V375.757H468.444V366.053C449.901 376.016 428.654 381.676 406.073 381.676C333.755 381.676 275.129 323.641 275.129 252.065C275.129 180.473 333.755 122.438 406.073 122.438C478.386 122.438 537.012 180.473 537.012 252.065ZM468.523 255.903C468.523 256.219 468.521 256.535 468.516 256.85H468.444V259.045C466.809 291.432 440.032 317.188 407.238 317.188C373.392 317.188 345.953 289.75 345.953 255.903C345.953 222.056 373.392 194.618 407.238 194.618C441.085 194.618 468.523 222.056 468.523 255.903Z" fill="white"/>
</g>
<defs>
<clipPath id="clip0_4825_1689">
<rect width="1294" height="512" fill="white"/>
</clipPath>
</defs>
</svg>
